<svg width="64" height="64" viewBox="0 0 64 64" xmlns="http://www.w3.org/2000/svg">
  <defs>
    <linearGradient id="cf-grad" x1="0%" y1="0%" x2="100%" y2="100%">
      <stop offset="0%" stop-color="#fbbf24" />
      <stop offset="55%" stop-color="#d946ef" />
      <stop offset="100%" stop-color="#7c3aed" />
    </linearGradient>
  </defs>
  <rect width="64" height="64" rx="16" fill="url(#cf-grad)" />
  <path
    d="M32 12c1.5 5 5 7.5 8 11 3.3 3.9 5 8 5 12.2C45 43.5 39.2 50 31.5 50S18 43.5 18 35.2c0-3.3 1.1-6 2.8-8.6.5 2.6 1.9 4.4 3.9 4.4 2.4 0 3.8-2.1 3.3-4.9-.7-3.8-.3-8.8 4-14.1z"
    fill="#ffffff"
  />
  <path
    d="M32 26c1 2.6 2.7 4 4.1 5.7 1.7 2 2.6 4.1 2.6 6.3 0 4.3-3 7.5-6.9 7.5s-6.9-3.2-6.9-7.5c0-1.7.6-3.1 1.4-4.4.3 1.3 1 2.3 2 2.3 1.2 0 1.9-1.1 1.7-2.5-.4-2 0-4.5 2-7.4z"
    fill="url(#cf-grad)"
  />
</svg>